#N canvas 58 84 2148 1267 12;
#X obj 81 41 loadbang;
#X msg 72 89 listen 3000;
#X msg 254 91 listen 0;
#X obj 80 145 netreceive 3000;
#X obj 104 214 fudiparse;
#X obj 119 279 unpack float float float;
#X obj 171 375 makenote;
#X obj 193 440 noteout;
#X obj 78 269 bng 15 250 50 0 empty empty empty 17 7 0 10 #fcfcfc #000000 #000000;
#X obj 25 416 print;
#X obj 423 6 loadbang;
#X msg 601 55 listen 0;
#X obj 451 178 fudiparse;
#X obj 468 392 makenote;
#X obj 674 523 noteout;
#X obj 375 209 bng 15 250 50 0 empty empty empty 17 7 0 10 #fcfcfc #000000 #000000;
#X obj 372 380 print;
#X obj 595 400 makenote;
#X obj 427 109 netreceive 3001;
#X msg 419 53 listen 3001;
#X obj 728 396 makenote;
#X obj 472 248 unpack float float float float float float float float float float float float, f 81;
#X obj 925 422 makenote;
#X obj 860 373 route 0;
#X obj 715 317 route 0;
#X obj 435 329 route 0;
#X obj 581 340 route 0;
#X floatatom 262 376 5 0 0 0 - - - 0;
#X obj 948 503 loadbang;
#X msg 871 508 17;
#X floatatom 781 543 5 0 0 0 - - - 0;
#X connect 0 0 1 0;
#X connect 1 0 3 0;
#X connect 2 0 3 0;
#X connect 3 0 4 0;
#X connect 4 0 8 0;
#X connect 4 0 5 0;
#X connect 5 0 6 0;
#X connect 5 0 9 0;
#X connect 5 1 6 1;
#X connect 5 2 6 2;
#X connect 6 0 7 0;
#X connect 6 1 7 1;
#X connect 10 0 19 0;
#X connect 11 0 18 0;
#X connect 12 0 15 0;
#X connect 12 0 21 0;
#X connect 12 0 16 0;
#X connect 13 0 14 0;
#X connect 13 1 14 1;
#X connect 17 0 14 0;
#X connect 17 1 14 1;
#X connect 18 0 12 0;
#X connect 19 0 18 0;
#X connect 20 0 14 0;
#X connect 20 1 14 1;
#X connect 21 0 25 0;
#X connect 21 1 13 1;
#X connect 21 2 13 2;
#X connect 21 3 26 0;
#X connect 21 4 17 1;
#X connect 21 5 17 2;
#X connect 21 6 24 0;
#X connect 21 7 20 1;
#X connect 21 8 20 2;
#X connect 21 9 23 0;
#X connect 21 10 22 1;
#X connect 21 11 22 2;
#X connect 22 0 14 0;
#X connect 22 1 14 1;
#X connect 23 1 22 0;
#X connect 24 1 20 0;
#X connect 25 1 13 0;
#X connect 26 1 17 0;
#X connect 27 0 7 2;
#X connect 28 0 29 0;
#X connect 29 0 30 0;
#X connect 30 0 14 2;
