#N canvas -33 37 1622 1170 12;
#X obj 98 547 makenote;
#X obj 93 618 noteout;
#X msg 263 486 60;
#X msg 309 509 1000;
#X obj 93 46 tgl 15 0 empty empty empty 17 7 0 10 #fcfcfc #000000 #000000 0 1;
#X obj 87 136 bng 15 250 50 0 empty empty empty 17 7 0 10 #fcfcfc #000000 #000000;
#X obj 95 193 random 6;
#X obj 100 307 sel 0 1 2 3 4 5;
#X obj 52 364 bng 15 250 50 0 empty empty empty 17 7 0 10 #fcfcfc #000000 #000000;
#X msg 91 418 60;
#X msg 47 423 57;
#X msg 141 413 62;
#X msg 209 411 64;
#X msg 278 406 67;
#X msg 384 395 69;
#X obj 421 172 ctlout 1;
#X floatatom 421 101 5 0 0 0 - - - 0;
#X obj 529 386 makenote;
#X floatatom 96 249 5 0 0 0 - - - 0;
#X obj 89 363 bng 15 250 50 0 empty empty empty 17 7 0 10 #fcfcfc #000000 #000000;
#X obj 134 365 bng 15 250 50 0 empty empty empty 17 7 0 10 #fcfcfc #000000 #000000;
#X obj 168 366 bng 15 250 50 0 empty empty empty 17 7 0 10 #fcfcfc #000000 #000000;
#X obj 207 369 bng 15 250 50 0 empty empty empty 17 7 0 10 #fcfcfc #000000 #000000;
#X obj 252 369 bng 15 250 50 0 empty empty empty 17 7 0 10 #fcfcfc #000000 #000000;
#X msg 531 305 60;
#X msg 594 274 100;
#X msg 682 269 1000, f 7;
#X obj 534 444 noteout;
#X obj 330 456 loadbang;
#X obj 516 526 loadbang;
#X msg 507 574 listen 3000;
#X msg 689 576 listen 0;
#X obj 515 630 netreceive 3000;
#X obj 229 808 print tcp;
#X obj 539 699 fudiparse;
#X obj 231 743 unpack float;
#X obj 554 764 unpack float float float;
#X obj 606 860 makenote;
#X obj 628 925 noteout;
#X obj 513 754 bng 15 250 50 0 empty empty empty 17 7 0 10 #fcfcfc #000000 #000000;
#X obj 460 901 print;
#X obj 975 394 loadbang;
#X msg 1148 444 listen 0;
#X obj 998 567 fudiparse;
#X obj 1026 858 makenote;
#X obj 1179 985 noteout;
#X obj 922 598 bng 15 250 50 0 empty empty empty 17 7 0 10 #fcfcfc #000000 #000000;
#X obj 919 769 print;
#X obj 1127 853 makenote;
#X obj 974 498 netreceive 3001;
#X msg 966 442 listen 3001;
#X obj 1225 865 makenote;
#X obj 85 100 metro 1000;
#X floatatom 169 585 5 0 0 0 - - - 0;
#X obj 1155 57 tgl 15 0 empty empty empty 17 7 0 10 #fcfcfc #000000 #000000 0 1;
#X obj 860 272 print "left";
#X obj 1010 284 print "right";
#X obj 1094 173 expr $f1 \; if ($f1 > 0 \, $f1 \, 0);
#X obj 1107 233 print yas;
#X obj 1218 235 print yos;
#X floatatom 1159 115 5 0 0 0 - - - 0;
#X obj 899 133 route 0;
#X msg 910 79 1;
#X obj 1019 637 unpack float float float float float float float float float float float float, f 81;
#X obj 1422 862 makenote;
#X obj 1405 793 route 0;
#X obj 1241 746 route 0;
#X obj 988 739 route 0;
#X obj 1128 729 route 0;
#X floatatom 751 893 5 0 0 0 - - - 0;
#X msg 1345 75 42;
#X obj 1336 187 print print;
#X obj 1348 129 pipe 2000;
#X floatatom 1335 941 5 0 0 0 - - - 0;
#X connect 0 0 1 0;
#X connect 0 1 1 1;
#X connect 2 0 0 1;
#X connect 3 0 0 2;
#X connect 4 0 52 0;
#X connect 5 0 6 0;
#X connect 6 0 18 0;
#X connect 7 0 8 0;
#X connect 7 1 19 0;
#X connect 7 2 20 0;
#X connect 7 3 21 0;
#X connect 7 4 22 0;
#X connect 7 5 23 0;
#X connect 8 0 10 0;
#X connect 9 0 0 0;
#X connect 10 0 0 0;
#X connect 11 0 0 0;
#X connect 12 0 0 0;
#X connect 13 0 0 0;
#X connect 14 0 0 0;
#X connect 16 0 15 0;
#X connect 17 0 27 0;
#X connect 17 1 27 1;
#X connect 18 0 7 0;
#X connect 19 0 9 0;
#X connect 20 0 11 0;
#X connect 21 0 12 0;
#X connect 22 0 13 0;
#X connect 23 0 14 0;
#X connect 24 0 17 0;
#X connect 25 0 17 1;
#X connect 26 0 17 2;
#X connect 28 0 3 0;
#X connect 28 0 2 0;
#X connect 29 0 30 0;
#X connect 30 0 32 0;
#X connect 31 0 32 0;
#X connect 32 0 34 0;
#X connect 34 0 39 0;
#X connect 34 0 36 0;
#X connect 35 0 7 0;
#X connect 36 0 37 0;
#X connect 36 0 40 0;
#X connect 36 1 37 1;
#X connect 36 2 37 2;
#X connect 37 0 38 0;
#X connect 37 1 38 1;
#X connect 41 0 50 0;
#X connect 42 0 49 0;
#X connect 43 0 46 0;
#X connect 43 0 63 0;
#X connect 43 0 47 0;
#X connect 44 0 45 0;
#X connect 44 1 45 1;
#X connect 48 0 45 0;
#X connect 48 1 45 1;
#X connect 49 0 43 0;
#X connect 50 0 49 0;
#X connect 51 0 45 0;
#X connect 51 1 45 1;
#X connect 52 0 5 0;
#X connect 53 0 1 2;
#X connect 54 0 60 0;
#X connect 57 0 58 0;
#X connect 57 1 59 0;
#X connect 60 0 57 0;
#X connect 61 0 55 0;
#X connect 61 1 56 0;
#X connect 62 0 61 0;
#X connect 63 0 67 0;
#X connect 63 1 44 1;
#X connect 63 2 44 2;
#X connect 63 3 68 0;
#X connect 63 4 48 1;
#X connect 63 5 48 2;
#X connect 63 6 66 0;
#X connect 63 7 51 1;
#X connect 63 8 51 2;
#X connect 63 9 65 0;
#X connect 63 10 64 1;
#X connect 63 11 64 2;
#X connect 64 0 45 0;
#X connect 64 1 45 1;
#X connect 65 1 64 0;
#X connect 66 1 51 0;
#X connect 67 1 44 0;
#X connect 68 1 48 0;
#X connect 69 0 38 2;
#X connect 70 0 72 0;
#X connect 72 0 71 0;
#X connect 73 0 45 2;
